# xmcd CD database file
#
# Track frame offsets:
#	150
#	19193
#	36247
#	57856
#	78936
#	103222
#	122253
#	143233
#	164021
#	180576
#	202258
#	218338
#	234373
#
# Disc length: 3360 seconds
#
# Revision: 0
# Processed by: cddbd v1.5.2PL0 Copyright (c) Steve Scherf et al.
# Submitted via: CDex 1.51
#
DISCID=ae0d1e0d
DTITLE=Acoustic Alchemy - Roseland
DYEAR=2011
DGENRE=Jazz
TTITLE0=Marrakesh
TTITLE1=One For Shorty
TTITLE2=Templeheads
TTITLE3=Marcus
TTITLE4=The Ebor Sound System
TTITLE5=The State Of The Ark
TTITLE6=Swamp Top
TTITLE7=Sand On Her Toes
TTITLE8=Roseland
TTITLE9=World Stage
TTITLE10=Stealing Hearts
TTITLE11=Right Place, Wrong Time
TTITLE12=A Kinder Loving
EXTD=YEAR: 2011
EXTT0=
EXTT1=
EXTT2=
EXTT3=
EXTT4=
EXTT5=
EXTT6=
EXTT7=
EXTT8=
EXTT9=
EXTT10=
EXTT11=
EXTT12=
PLAYORDER=
